<?xml version="1.0" encoding="utf-8"?>
<!-- Generator: Adobe Illustrator 23.0.6, SVG Export Plug-In . SVG Version: 6.00 Build 0)  -->
<svg version="1.1" id="Layer_1" xmlns="http://www.w3.org/2000/svg" xmlns:xlink="http://www.w3.org/1999/xlink" x="0px" y="0px"
	 viewBox="0 0 400 400" style="enable-background:new 0 0 400 400;" xml:space="preserve">
<style type="text/css">
	.st0{fill:#FFFFFF;stroke:#000000;stroke-miterlimit:10;}
	.st1{fill:none;stroke:#000000;stroke-miterlimit:10;}
</style>
<g>
	<g>
		<path class="st0" d="M76.35,85.19h1.54l0.16,2.89h0.05c0.58-2.03,1.28-3.43,2.58-3.43c1.12,0,1.82,1.26,2.14,3.79
			c0.65-2.34,1.35-3.79,2.65-3.79c1.58,0,2.52,2.39,2.52,6.76v15.69h-1.91V91.68c0-2.52-0.37-3.83-1.21-3.83
			c-0.79,0-1.21,1.13-1.82,3.38v15.87h-1.77V91.68c0-2.52-0.33-3.83-1.16-3.83c-0.79,0-1.3,1.13-1.86,3.38v15.87h-1.91V85.19z"/>
		<path class="st0" d="M93.02,88.21h-5.24v-3.02h7.17v21.91h-1.93V88.21z M92.25,77.7c0-1.71,0.65-2.89,1.54-2.89
			s1.54,1.17,1.54,2.89c0,1.76-0.65,2.89-1.54,2.89S92.25,79.46,92.25,77.7z"/>
		<path class="st0" d="M98.03,104.21l0.88-2.48c1.3,1.8,2.84,2.98,4.91,2.98c1.91,0,2.84-1.53,2.84-3.38c0-1.67-0.44-2.84-3.52-4.06
			c-2.96-1.17-4.42-3.11-4.42-6.4c0-3.52,1.61-6.22,4.7-6.22c1.72,0,3.45,1.31,4.56,2.8l-0.93,2.39c-1.05-1.4-2.35-2.3-3.8-2.3
			c-1.91,0-2.61,1.49-2.61,3.16c0,1.89,0.98,2.71,3.31,3.65c3.75,1.58,4.66,3.38,4.66,6.76c0,3.56-1.79,6.54-5.03,6.54
			C101.38,107.64,99.4,106.06,98.03,104.21z"/>
		<path class="st0" d="M108.72,104.21l0.88-2.48c1.3,1.8,2.84,2.98,4.91,2.98c1.91,0,2.84-1.53,2.84-3.38
			c0-1.67-0.44-2.84-3.52-4.06c-2.96-1.17-4.42-3.11-4.42-6.4c0-3.52,1.61-6.22,4.7-6.22c1.72,0,3.45,1.31,4.56,2.8l-0.93,2.39
			c-1.05-1.4-2.35-2.3-3.8-2.3c-1.91,0-2.61,1.49-2.61,3.16c0,1.89,0.98,2.71,3.31,3.65c3.75,1.58,4.66,3.38,4.66,6.76
			c0,3.56-1.79,6.54-5.03,6.54C112.07,107.64,110.09,106.06,108.72,104.21z"/>
		<path class="st0" d="M125.09,88.21h-5.24v-3.02h7.17v21.91h-1.93V88.21z M124.32,77.7c0-1.71,0.65-2.89,1.54-2.89
			s1.54,1.17,1.54,2.89c0,1.76-0.65,2.89-1.54,2.89S124.32,79.46,124.32,77.7z"/>
		<path class="st0" d="M129.84,96.19c0-7.35,2.61-11.54,5.59-11.54s5.59,4.19,5.59,11.54c0,7.26-2.61,11.45-5.59,11.45
			S129.84,103.45,129.84,96.19z M139.04,96.19c0-5.05-1.44-8.43-3.61-8.43s-3.61,3.38-3.61,8.43c0,5,1.44,8.34,3.61,8.34
			S139.04,101.19,139.04,96.19z"/>
		<path class="st0" d="M141.3,85.19h1.58l0.16,3.7h0.09c1.19-2.39,2.49-4.24,4.26-4.24c2.68,0,3.91,3.07,3.91,8.84v13.62h-1.93
			V93.98c0-4.15-0.75-6.09-2.58-6.09c-1.35,0-2.26,1.31-3.56,3.92v15.29h-1.93L141.3,85.19L141.3,85.19z"/>
	</g>
</g>
<g>
	<g>
		<path class="st0" d="M106.38,136.96c-0.54,0.04-1.09,0.07-1.63,0.11c-2.04-2.63-4.1-3.9-5.02-3.81c-0.62,0.06-0.73,0.43-0.39,1.1
			c0.34,0.67,1.13,1.65,2.13,2.94c0.74,0.95,1.48,1.84,2.26,2.69c2.79,2.99,4.35,6.06,4.92,9.2c0.31,1.75,0.01,3.64-1.07,5.64
			c-0.35,0.65-0.75,1.3-1.18,1.95c-1.46,2.16-3.5,4-5.9,5.5c-2.42,1.49-4.4,2.17-5.44,2.05c-0.64-0.07-1.27-0.14-1.91-0.21
			c-1.29-0.15-1.29-0.89-0.23-2.21c1.03-1.32,3.14-3.22,5.28-5.72c0.55,0.04,1.1,0.09,1.65,0.13c-0.22,0.27-0.4,0.48-0.53,0.64
			c-0.89,1.03-1.53,1.83-1.74,2.41c-0.22,0.58-0.13,0.9,0.31,0.94c0.62,0.06,1.43-0.23,2.35-0.87c0.91-0.64,1.93-1.6,2.88-2.87
			c0.73-0.99,1.14-1.92,1.29-2.77c0.52-3.12,0.07-6.17-1.58-9.13c-0.91-1.61-1.92-3.36-3.22-5.27c-0.42-0.61-0.88-1.22-1.4-1.84
			c-1.72-2.03-3.44-3.81-4.65-5.38c-1.23-1.57-1.47-2.43-0.39-2.55c0.64-0.07,1.27-0.14,1.91-0.21
			C97.33,129.14,102.56,131.66,106.38,136.96z"/>
		<path class="st0" d="M100.15,164.88c14.09-12,14.09-24,0-36c1.28-0.13,2.56-0.25,3.84-0.37c13.02,12.25,13.02,24.5,0,36.75
			C102.71,165.13,101.43,165.01,100.15,164.88z"/>
		<path class="st0" d="M108.99,132.48c-1.09-1.36-2.34-2.73-3.74-4.09c1.28-0.12,2.56-0.23,3.84-0.33c1.28,1.39,2.43,2.78,3.43,4.17
			C111.34,132.3,110.17,132.39,108.99,132.48z M105.25,165.37c9.85-9.58,12.04-19.16,6.58-28.75c1.1-0.06,2.19-0.13,3.29-0.19
			c5,9.76,2.99,19.51-6.02,29.27C107.81,165.6,106.53,165.49,105.25,165.37z"/>
		<path class="st0" d="M121.86,166.61c-1.27-0.07-2.55-0.15-3.82-0.24c5.07-7.23,7.32-14.45,6.75-21.68
			c-0.09-1.18-0.39-2.19-0.86-3.03s-0.95-1.25-1.39-1.24c-0.43,0.01-0.68,0.44-0.8,1.29c-0.13,0.85-0.11,1.85,0,3.01
			c0.63,7.13-1.88,14.25-7.54,21.38c-1.28-0.09-2.56-0.19-3.84-0.3c8.75-9.81,10.69-19.62,5.84-29.43c1.1-0.06,2.19-0.11,3.29-0.16
			c0.62,1.42,1.13,2.84,1.5,4.25c-0.32-1.44-0.56-2.51-0.56-3.23c0-0.71,0.21-1.08,0.69-1.11c0.55-0.02,1.1-0.05,1.65-0.07
			c1.11-0.05,2.36,0.94,3.39,2.99c-0.01-1.06,0.07-1.85,0.32-2.37c0.24-0.52,0.64-0.8,1.21-0.82c0.54-0.02,1.09-0.04,1.63-0.06
			c0.89-0.03,1.93,0.82,2.91,2.55c0.97,1.73,1.56,3.82,1.68,6.26c0.37,7.46-1.09,14.92-4.37,22.38c-1.28-0.06-2.56-0.12-3.84-0.18
			c3.88-7.39,5.6-14.78,5.17-22.18c-0.07-1.17-0.33-2.2-0.76-3.08s-0.89-1.31-1.31-1.3c-0.43,0.01-0.7,0.45-0.87,1.32
			c-0.17,0.87-0.19,1.9-0.11,3.09C128.32,151.98,126.33,159.3,121.86,166.61z"/>
		<path class="st0" d="M130.8,167.06c5.55-13.45,5.55-26.91,0-40.36c2.56-0.11,5.12-0.19,7.68-0.26c1.04-0.03,2.17,0.85,3.18,2.64
			c1.02,1.79,1.61,3.93,1.85,6.41c0.14,1.51,0.26,3.03,0.34,4.54c0.14,2.48-0.11,4.63-0.7,6.43c-0.59,1.81-1.33,2.7-2.16,2.7
			c-1.02,0-2.03-0.01-3.05-0.01c-0.22,6.02-1.33,12.03-3.32,18.05C133.36,167.16,132.08,167.11,130.8,167.06z M137.96,144.6
			c0.5,0,1.01,0,1.51-0.01c0.42,0,0.78-0.45,1.03-1.34c0.26-0.89,0.35-1.96,0.25-3.19c-0.13-1.51-0.29-3.02-0.5-4.52
			c-0.18-1.27-0.52-2.35-1.02-3.23c-0.5-0.88-1.02-1.32-1.52-1.3c-0.58,0.02-1.17,0.03-1.75,0.05
			C137.13,135.57,137.79,140.09,137.96,144.6z"/>
		<path class="st0" d="M147.9,135.45c1.09-0.01,2.19-0.01,3.28-0.01c0.89,0,1.64,0.9,2.21,2.7s0.8,3.94,0.78,6.44
			c-0.05,4.58,0.05,9.16,0.28,13.75c0.13,2.49-0.05,4.65-0.65,6.47c-0.6,1.82-1.47,2.73-2.52,2.72c-1.28,0-2.56-0.01-3.84-0.02
			c-1.05-0.01-1.87-0.92-2.4-2.72s-0.62-3.96-0.42-6.48c0.37-4.57,0.51-9.13,0.44-13.7c-0.04-2.48,0.16-4.62,0.69-6.42
			C146.28,136.36,147,135.46,147.9,135.45z M148.1,144.57c0.03,4.58-0.03,9.16-0.2,13.74c-0.05,1.25,0.07,2.33,0.37,3.24
			c0.3,0.92,0.7,1.38,1.18,1.38c0.49,0,0.92-0.45,1.25-1.37c0.34-0.91,0.49-2,0.48-3.24c-0.03-4.58-0.05-9.17-0.04-13.75
			c0-1.25-0.14-2.32-0.45-3.22c-0.3-0.9-0.68-1.35-1.11-1.35c-0.42,0-0.78,0.45-1.07,1.35C148.22,142.25,148.09,143.33,148.1,144.57
			z"/>
		<path class="st0" d="M162.78,144.59c-0.5,0-1.01,0-1.51-0.01c-0.03-3.02-0.34-4.54-1.2-4.55c-0.55,0-0.99,0.31-1.29,0.95
			c-0.31,0.64-0.49,1.58-0.53,2.82c-0.03,1.32,0.65,3.17,2.19,5.53c1.26,1.93,2.1,3.52,2.43,4.79c0.33,1.27,0.61,2.63,0.87,4.09
			c0.44,2.51,0.64,4.66,0.38,6.46c-0.25,1.8-0.92,2.71-1.98,2.73c-0.64,0.01-1.27,0.02-1.91,0.03c-2.6,0.04-4.31-3.02-4.67-9.14
			c0.55,0,1.1-0.01,1.65-0.01c0.4,3.07,1.17,4.61,2.13,4.59c0.63-0.01,1.05-0.33,1.25-0.98c0.2-0.64,0.19-1.6,0.01-2.88
			c-0.18-1.28-1.21-3.09-2.85-5.46c-1.34-1.93-2.06-3.54-2.26-4.83c-0.2-1.28-0.3-2.66-0.28-4.12c0.03-2.53,0.41-4.69,1.14-6.48
			s1.6-2.68,2.49-2.67c0.54,0.01,1.09,0.01,1.63,0.02C162.59,135.52,162.94,138.56,162.78,144.59z"/>
		<path class="st0" d="M171.38,144.63c-0.5,0-1.01-0.01-1.51-0.01c0.06-2.97-0.1-4.47-0.97-4.48c-0.55-0.01-1.01,0.3-1.36,0.93
			c-0.35,0.63-0.59,1.56-0.67,2.78c-0.08,1.3,0.57,3.13,2.17,5.45c1.31,1.89,2.25,3.45,2.68,4.7s0.85,2.58,1.28,4
			c0.75,2.46,1.32,4.57,1.4,6.35c0.1,1.78-0.36,2.7-1.43,2.74c-0.64,0.03-1.27,0.05-1.91,0.07c-2.56,0.1-5.1-2.9-6.26-8.97
			c0.55-0.01,1.1-0.02,1.65-0.03c0.78,3.04,1.86,4.54,2.81,4.51c0.63-0.02,1-0.35,1.09-0.99c0.1-0.64-0.07-1.59-0.42-2.84
			c-0.35-1.26-1.6-3.03-3.41-5.36c-1.48-1.9-2.25-3.49-2.49-4.76c-0.23-1.27-0.32-2.63-0.27-4.08c0.1-2.5,0.62-4.64,1.53-6.41
			s1.9-2.63,2.78-2.61c0.54,0.01,1.09,0.03,1.63,0.04C171.89,135.72,171.72,138.72,171.38,144.63z"/>
		<path class="st0" d="M175.81,131.31c0.66-1.47,1.42-2.95,2.28-4.42c1.28,0.06,2.56,0.13,3.84,0.2c-0.97,1.46-1.84,2.92-2.59,4.38
			C178.16,131.42,176.98,131.36,175.81,131.31z M178.09,166.87c-5.99-10.36-7.32-20.72-4-31.08c1.09,0.04,2.19,0.07,3.28,0.11
			c-3.79,10.25-2.27,20.51,4.56,30.76C180.65,166.74,179.37,166.81,178.09,166.87z"/>
		<path class="st0" d="M183.19,166.59c-9.14-13.14-9.14-26.28,0-39.42c1.28,0.08,2.56,0.16,3.84,0.24
			c-3.41,4.33-5.68,8.65-6.82,12.98c0.45-1.45,1.02-2.53,1.57-3.22c0.56-0.7,1.1-1.03,1.57-1.01c0.55,0.03,1.1,0.05,1.65,0.08
			c0.9,0.04,1.2,0.92,1.14,2.6c-0.05,1.68-0.37,3.65-0.62,5.94c-0.46,4.2,0.45,8.4,2.74,12.6c1.25,2.29,2.4,4.28,3.07,6
			c0.69,1.72,0.6,2.64-0.46,2.71C188.31,166.27,185.75,166.44,183.19,166.59z M184.01,162.04c0.58-0.03,1.17-0.07,1.75-0.1
			c0.49-0.03,0.62-0.48,0.42-1.36c-0.19-0.87-0.62-1.89-1.19-3.05c-2.09-4.27-2.93-8.53-2.5-12.8c0.12-1.16,0.16-2.16,0.05-3.01
			c-0.1-0.84-0.34-1.28-0.78-1.29c-0.42-0.01-0.91,0.4-1.4,1.24c-0.48,0.84-0.8,1.85-0.91,3.03
			C178.95,150.48,180.47,156.26,184.01,162.04z"/>
		<path class="st0" d="M195.98,165.67c-12.75-12.53-12.75-25.06,0-37.59c1.28,0.11,2.56,0.22,3.84,0.34
			c-13.83,12.31-13.83,24.61,0,36.92C198.54,165.45,197.26,165.57,195.98,165.67z"/>
		<path class="st0" d="M200.95,152.59c-2.07,0.1-4.14,0.19-6.21,0.28c0.56,1.33,1.31,2.65,2.25,3.98c0.77,1.09,1.72,2.02,2.79,2.79
			c1.07,0.77,1.91,1.13,2.38,1.09c0.59-0.05,1.18-0.11,1.77-0.16c1.22-0.11,0.12-1.46-2.04-4.05c0.54-0.04,1.09-0.08,1.63-0.12
			c4.3,5.09,7.74,7.8,5.24,8.06c-1.28,0.14-2.56,0.27-3.84,0.4c-1.03,0.11-2.98-0.59-5.36-2.12c-2.37-1.52-4.4-3.43-5.85-5.68
			c-2.62-4.08-3.67-8.15-3.14-12.23c0.29-2.22,1.29-4.12,2.72-5.68c1.44-1.56,2.82-2.29,3.7-2.23c1.09,0.07,2.18,0.15,3.28,0.22
			c0.91,0.06,1,0.88,0.65,2.42c-0.33,1.54-0.9,3.33-1.26,5.4C199.23,147.5,199.66,150.05,200.95,152.59z M193.61,148.89
			c1.01-0.01,2.02-0.03,3.04-0.05c-0.21-1.31-0.21-2.62,0-3.93c0.17-1.06,0.29-1.98,0.28-2.76s-0.19-1.18-0.63-1.2
			c-0.42-0.02-0.97,0.35-1.55,1.12c-0.57,0.77-0.98,1.7-1.13,2.79C193.42,146.21,193.42,147.55,193.61,148.89z"/>
	</g>
</g>
<line class="st1" x1="150.76" y1="104.8" x2="150.74" y2="135.79"/>
</svg>
